# Exported from ProBuilder
# http://www.procore3d.com/probuilder
# 12/25/2017 9:15:47 PM

mtllib ./4x4x4_Cube.mtl
o 4x4x4 Cube

g 4x4x4 Cube
v 1.5 -1.5 2
v -1.5 -1.5 2
v 2 2 2
v -2 2 2
v 1.5 2 1.5
v -1.5 2 1.5
v -2 2 -2
v -1.5 2 -1.5
v 2 2 -2
v 1.5 2 -1.5
v -2 -2 2
v 2 -2 2
v -2 2 2
v 2 2 2
v -1.5 1.5 2
v 1.5 1.5 2
v -2 -2 -2
v 2 -2 -2
v -1.5 -1.5 -2
v 1.5 -1.5 -2
v 2 2 -2
v 1.5 1.5 -2
v -2 2 -2
v -1.5 1.5 -2
v -2 -2 2
v -2 -2 -2
v -2 -1.5 1.5
v -2 -1.5 -1.5
v -2 2 -2
v -2 1.5 -1.5
v -2 2 2
v -2 1.5 1.5
v 2 -2 -2
v 2 -2 2
v 2 -1.5 -1.5
v 2 -1.5 1.5
v 2 2 2
v 2 1.5 1.5
v 2 2 -2
v 2 1.5 -1.5
v 2 -2 -2
v -2 -2 -2
v 1.5 -2 -1.5
v -1.5 -2 -1.5
v -2 -2 2
v -1.5 -2 1.5
v 2 -2 2
v 1.5 -2 1.5

vn 0 0 1
vn 0 0 1
vn 0 1 0
vn 0 1 0
vn 0 1 0
vn 0 1 0
vn 0 1 0
vn 0 1 0
vn 0 1 0
vn 0 1 0
vn 0 0 1
vn 0 0 1
vn 0 0 1
vn 0 0 1
vn 0 0 1
vn 0 0 1
vn 0 0 -1
vn 0 0 -1
vn 0 0 -1
vn 0 0 -1
vn 0 0 -1
vn 0 0 -1
vn 0 0 -1
vn 0 0 -1
vn -1 0 0
vn -1 0 0
vn -1 0 0
vn -1 0 0
vn -1 0 0
vn -1 0 0
vn -1 0 0
vn -1 0 0
vn 1 0 0
vn 1 0 0
vn 1 0 0
vn 1 0 0
vn 1 0 0
vn 1 0 0
vn 1 0 0
vn 1 0 0
vn 0 -1 0
vn 0 -1 0
vn 0 -1 0
vn 0 -1 0
vn 0 -1 0
vn 0 -1 0
vn 0 -1 0
vn 0 -1 0

vt 1.5 -1.5
vt -1.5 -1.5
vt -2 2
vt 2 2
vt -1.5 1.5
vt 1.5 1.5
vt 2 -2
vt 1.5 -1.5
vt -2 -2
vt -1.5 -1.5
vt -2 -2
vt 2 -2
vt -2 2
vt 2 2
vt -1.5 1.5
vt 1.5 1.5
vt 2 -2
vt -2 -2
vt 1.5 -1.5
vt -1.5 -1.5
vt -2 2
vt -1.5 1.5
vt 2 2
vt 1.5 1.5
vt 2 -2
vt -2 -2
vt 1.5 -1.5
vt -1.5 -1.5
vt -2 2
vt -1.5 1.5
vt 2 2
vt 1.5 1.5
vt 2 -2
vt -2 -2
vt 1.5 -1.5
vt -1.5 -1.5
vt -2 2
vt -1.5 1.5
vt 2 2
vt 1.5 1.5
vt 2 -2
vt -2 -2
vt 1.5 -1.5
vt -1.5 -1.5
vt -2 2
vt -1.5 1.5
vt 2 2
vt 1.5 1.5

g 4x4x4 Cube
usemtl GP_Dev_Orange
f 15/15/15 14/14/14 13/13/13
f 15/15/15 16/16/16 14/14/14
f 16/16/16 2/2/2 1/1/1
f 16/16/16 15/15/15 2/2/2
f 16/16/16 12/12/12 14/14/14
f 16/16/16 1/1/1 12/12/12
f 1/1/1 11/11/11 12/12/12
f 1/1/1 2/2/2 11/11/11
f 2/2/2 13/13/13 11/11/11
f 2/2/2 15/15/15 13/13/13
f 5/5/5 4/4/4 3/3/3
f 5/5/5 6/6/6 4/4/4
f 6/6/6 7/7/7 4/4/4
f 6/6/6 8/8/8 7/7/7
f 8/8/8 9/9/9 7/7/7
f 8/8/8 10/10/10 9/9/9
f 10/10/10 3/3/3 9/9/9
f 10/10/10 5/5/5 3/3/3
f 10/10/10 6/6/6 5/5/5
f 10/10/10 8/8/8 6/6/6
f 27/27/27 26/26/26 25/25/25
f 27/27/27 28/28/28 26/26/26
f 28/28/28 29/29/29 26/26/26
f 28/28/28 30/30/30 29/29/29
f 30/30/30 31/31/31 29/29/29
f 30/30/30 32/32/32 31/31/31
f 32/32/32 25/25/25 31/31/31
f 32/32/32 27/27/27 25/25/25
f 32/32/32 28/28/28 27/27/27
f 32/32/32 30/30/30 28/28/28
f 19/19/19 18/18/18 17/17/17
f 19/19/19 20/20/20 18/18/18
f 20/20/20 21/21/21 18/18/18
f 20/20/20 22/22/22 21/21/21
f 22/22/22 23/23/23 21/21/21
f 22/22/22 24/24/24 23/23/23
f 24/24/24 17/17/17 23/23/23
f 24/24/24 19/19/19 17/17/17
f 24/24/24 20/20/20 19/19/19
f 24/24/24 22/22/22 20/20/20
f 43/43/43 42/42/42 41/41/41
f 43/43/43 44/44/44 42/42/42
f 44/44/44 45/45/45 42/42/42
f 44/44/44 46/46/46 45/45/45
f 46/46/46 47/47/47 45/45/45
f 46/46/46 48/48/48 47/47/47
f 48/48/48 41/41/41 47/47/47
f 48/48/48 43/43/43 41/41/41
f 48/48/48 44/44/44 43/43/43
f 48/48/48 46/46/46 44/44/44
f 35/35/35 34/34/34 33/33/33
f 35/35/35 36/36/36 34/34/34
f 36/36/36 37/37/37 34/34/34
f 36/36/36 38/38/38 37/37/37
f 38/38/38 39/39/39 37/37/37
f 38/38/38 40/40/40 39/39/39
f 40/40/40 33/33/33 39/39/39
f 40/40/40 35/35/35 33/33/33
f 40/40/40 36/36/36 35/35/35
f 40/40/40 38/38/38 36/36/36

