# Exported from ProBuilder
# http://www.procore3d.com/probuilder
# 12/25/2017 9:35:01 PM

mtllib ./Wall_Straight_Top.mtl
o Wall Straight Top

g Wall Straight Top
v 0 1.5 0
v -0.5 1.5 0
v -0.5 1.5 -1
v 0 1.5 -1
v -0.5 1 -1
v 0 1 -1
v -0.5 1.5 -1
v 0 1.5 -1
v -0.5 1 0
v -0.5 1 -1
v -0.5 1.5 0
v -0.5 1.5 -1
v 0 1 0
v -0.5 1 0
v 0 1.5 0
v -0.5 1.5 0
v -10 1.5 -1
v -9.5 1.5 -1
v -9.5 1.5 0
v -10 1.5 0
v -10 1 -1
v -9.5 1 -1
v -10 1.5 -1
v -9.5 1.5 -1
v -9.5 1 -1
v -9.5 1 0
v -9.5 1.5 -1
v -9.5 1.5 0
v -9.5 1 0
v -10 1 0
v -9.5 1.5 0
v -10 1.5 0
v -5.5 1.5 -1
v -4.5 1.5 -1
v -4.5 1.5 0
v -5.5 1.5 0
v -5.5 1 -1
v -4.5 1 -1
v -5.5 1.5 -1
v -4.5 1.5 -1
v -4.5 1 -1
v -4.5 1 0
v -4.5 1.5 -1
v -4.5 1.5 0
v -5.5 1 0
v -5.5 1 -1
v -5.5 1.5 0
v -5.5 1.5 -1
v -4.5 1 0
v -5.5 1 0
v -4.5 1.5 0
v -5.5 1.5 0
v -2 1 -1
v -0.5 1 -1
v -0.5 1 0
v -2 1 0
v -4.5 1 -1
v -3 1 -1
v -3 1 0
v -4.5 1 0
v -3 1.5 -1
v -2 1.5 -1
v -2 1.5 0
v -3 1.5 0
v -3 1 -1
v -2 1 -1
v -3 1.5 -1
v -2 1.5 -1
v -2 1 -1
v -2 1 0
v -2 1.5 -1
v -2 1.5 0
v -3 1 0
v -3 1 -1
v -3 1.5 0
v -3 1.5 -1
v -2 1 0
v -3 1 0
v -2 1.5 0
v -3 1.5 0
v -7 1 -1
v -5.5 1 -1
v -5.5 1 0
v -7 1 0
v -9.5 1 -1
v -8 1 -1
v -8 1 0
v -9.5 1 0
v -8 1.5 -1
v -7 1.5 -1
v -7 1.5 0
v -8 1.5 0
v 0 1 0
v 0 0 0
v -10 0 0
v -10 1 0
v -9.5 1 0
v -8 1 0
v -7 1 0
v -5.5 1 0
v -4.5 1 0
v -3 1 0
v -2 1 0
v -0.5 1 0
v -9.5 1 -1
v -10 1 -1
v -10 0 -1
v 0 0 -1
v 0 1 -1
v -0.5 1 -1
v -2 1 -1
v -3 1 -1
v -4.5 1 -1
v -5.5 1 -1
v -7 1 -1
v -8 1 -1
v -8 1 -1
v -7 1 -1
v -8 1.5 -1
v -7 1.5 -1
v -7 1 -1
v -7 1 0
v -7 1.5 -1
v -7 1.5 0
v -8 1 0
v -8 1 -1
v -8 1.5 0
v -8 1.5 -1
v -7 1 0
v -8 1 0
v -7 1.5 0
v -8 1.5 0

vn 0 1 0
vn 0 1 0
vn 0 1 0
vn 0 1 0
vn 0 0 -1
vn 0 0 -1
vn 0 0 -1
vn 0 0 -1
vn -1 0 0
vn -1 0 0
vn -1 0 0
vn -1 0 0
vn 0 0 1
vn 0 0 1
vn 0 0 1
vn 0 0 1
vn 0 1 0
vn 0 1 0
vn 0 1 0
vn 0 1 0
vn 0 0 -1
vn 0 0 -1
vn 0 0 -1
vn 0 0 -1
vn 1 0 0
vn 1 0 0
vn 1 0 0
vn 1 0 0
vn 0 0 1
vn 0 0 1
vn 0 0 1
vn 0 0 1
vn 0 1 0
vn 0 1 0
vn 0 1 0
vn 0 1 0
vn 0 0 -1
vn 0 0 -1
vn 0 0 -1
vn 0 0 -1
vn 1 0 0
vn 1 0 0
vn 1 0 0
vn 1 0 0
vn -1 0 0
vn -1 0 0
vn -1 0 0
vn -1 0 0
vn 0 0 1
vn 0 0 1
vn 0 0 1
vn 0 0 1
vn 0 1 0
vn 0 1 0
vn 0 1 0
vn 0 1 0
vn 0 1 0
vn 0 1 0
vn 0 1 0
vn 0 1 0
vn 0 1 0
vn 0 1 0
vn 0 1 0
vn 0 1 0
vn 0 0 -1
vn 0 0 -1
vn 0 0 -1
vn 0 0 -1
vn 1 0 0
vn 1 0 0
vn 1 0 0
vn 1 0 0
vn -1 0 0
vn -1 0 0
vn -1 0 0
vn -1 0 0
vn 0 0 1
vn 0 0 1
vn 0 0 1
vn 0 0 1
vn 0 1 0
vn 0 1 0
vn 0 1 0
vn 0 1 0
vn 0 1 0
vn 0 1 0
vn 0 1 0
vn 0 1 0
vn 0 1 0
vn 0 1 0
vn 0 1 0
vn 0 1 0
vn 0 0 1
vn 0 0 1
vn 0 0 1
vn 0 0 1
vn 0 0 1
vn 0 0 1
vn 0 0 1
vn 0 0 1
vn 0 0 1
vn 0 0 1
vn 0 0 1
vn 0 0 1
vn 0 0 -1
vn 0 0 -1
vn 0 0 -1
vn 0 0 -1
vn 0 0 -1
vn 0 0 -1
vn 0 0 -1
vn 0 0 -1
vn 0 0 -1
vn 0 0 -1
vn 0 0 -1
vn 0 0 -1
vn 0 0 -1
vn 0 0 -1
vn 0 0 -1
vn 0 0 -1
vn 1 0 0
vn 1 0 0
vn 1 0 0
vn 1 0 0
vn -1 0 0
vn -1 0 0
vn -1 0 0
vn -1 0 0
vn 0 0 1
vn 0 0 1
vn 0 0 1
vn 0 0 1

vt 0 0
vt 0.5 0
vt 0.5 -1
vt 0 -1
vt 0.5 1
vt 0 1
vt 0.5 1.5
vt 0 1.5
vt 0 1
vt -1 1
vt 0 1.5
vt -1 1.5
vt 0 1
vt -0.5 1
vt 0 1.5
vt -0.5 1.5
vt 10 -1
vt 9.5 -1
vt 9.5 0
vt 10 0
vt 10 1
vt 9.5 1
vt 10 1.5
vt 9.5 1.5
vt 1 1
vt 0 1
vt 1 1.5
vt 0 1.5
vt -9.5 1
vt -10 1
vt -9.5 1.5
vt -10 1.5
vt 5.5 -1
vt 4.5 -1
vt 4.5 0
vt 5.5 0
vt 5.5 1
vt 4.5 1
vt 5.5 1.5
vt 4.5 1.5
vt 1 1
vt 0 1
vt 1 1.5
vt 0 1.5
vt 0 1
vt -1 1
vt 0 1.5
vt -1 1.5
vt -4.5 1
vt -5.5 1
vt -4.5 1.5
vt -5.5 1.5
vt 2 -1
vt 0.5 -1
vt 0.5 0
vt 2 0
vt 4.5 -1
vt 3 -1
vt 3 0
vt 4.5 0
vt 3 -1
vt 2 -1
vt 2 0
vt 3 0
vt 3 1
vt 2 1
vt 3 1.5
vt 2 1.5
vt 1 1
vt 0 1
vt 1 1.5
vt 0 1.5
vt 0 1
vt -1 1
vt 0 1.5
vt -1 1.5
vt -2 1
vt -3 1
vt -2 1.5
vt -3 1.5
vt 7 -1
vt 5.5 -1
vt 5.5 0
vt 7 0
vt 9.5 -1
vt 8 -1
vt 8 0
vt 9.5 0
vt 8 -1
vt 7 -1
vt 7 0
vt 8 0
vt 0 1
vt 0 0
vt -10 0
vt -10 1
vt -9.5 1
vt -8 1
vt -7 1
vt -5.5 1
vt -4.5 1
vt -3 1
vt -2 1
vt -0.5 1
vt 9.5 1
vt 10 1
vt 10 0
vt 0 0
vt 0 1
vt 0.5 1
vt 2 1
vt 3 1
vt 4.5 1
vt 5.5 1
vt 7 1
vt 8 1
vt 8 1
vt 7 1
vt 8 1.5
vt 7 1.5
vt 1 1
vt 0 1
vt 1 1.5
vt 0 1.5
vt 0 1
vt -1 1
vt 0 1.5
vt -1 1.5
vt -7 1
vt -8 1
vt -7 1.5
vt -8 1.5

g Wall Straight Top_0
usemtl GP_Dev_Orange
f 2/2/2 1/1/1 4/4/4 3/3/3
f 7/7/7 8/8/8 6/6/6 5/5/5
f 11/11/11 12/12/12 10/10/10 9/9/9
f 15/15/15 16/16/16 14/14/14 13/13/13
f 20/20/20 19/19/19 18/18/18 17/17/17
f 23/23/23 24/24/24 22/22/22 21/21/21
f 27/27/27 28/28/28 26/26/26 25/25/25
f 31/31/31 32/32/32 30/30/30 29/29/29
f 36/36/36 35/35/35 34/34/34 33/33/33
f 39/39/39 40/40/40 38/38/38 37/37/37
f 43/43/43 44/44/44 42/42/42 41/41/41
f 47/47/47 48/48/48 46/46/46 45/45/45
f 51/51/51 52/52/52 50/50/50 49/49/49
f 56/56/56 55/55/55 54/54/54 53/53/53
f 60/60/60 59/59/59 58/58/58 57/57/57
f 64/64/64 63/63/63 62/62/62 61/61/61
f 67/67/67 68/68/68 66/66/66 65/65/65
f 71/71/71 72/72/72 70/70/70 69/69/69
f 75/75/75 76/76/76 74/74/74 73/73/73
f 79/79/79 80/80/80 78/78/78 77/77/77
f 84/84/84 83/83/83 82/82/82 81/81/81
f 88/88/88 87/87/87 86/86/86 85/85/85
f 92/92/92 91/91/91 90/90/90 89/89/89
f 119/119/119 120/120/120 118/118/118 117/117/117
f 123/123/123 124/124/124 122/122/122 121/121/121
f 127/127/127 128/128/128 126/126/126 125/125/125
f 131/131/131 132/132/132 130/130/130 129/129/129

g Wall Straight Top_1
usemtl GP_Dev_Orange
f 104/104/104 94/94/94 93/93/93
f 104/104/104 103/103/103 94/94/94
f 103/103/103 102/102/102 94/94/94
f 102/102/102 101/101/101 94/94/94
f 101/101/101 100/100/100 94/94/94
f 94/94/94 100/100/100 95/95/95
f 95/95/95 100/100/100 99/99/99
f 95/95/95 99/99/99 98/98/98
f 95/95/95 98/98/98 97/97/97
f 97/97/97 96/96/96 95/95/95
f 107/107/107 106/106/106 105/105/105
f 105/105/105 116/116/116 107/107/107
f 116/116/116 115/115/115 107/107/107
f 115/115/115 114/114/114 107/107/107
f 107/107/107 114/114/114 108/108/108
f 108/108/108 114/114/114 113/113/113
f 108/108/108 113/113/113 112/112/112
f 108/108/108 112/112/112 111/111/111
f 108/108/108 111/111/111 110/110/110
f 109/109/109 108/108/108 110/110/110

