# Exported from ProBuilder
# http://www.procore3d.com/probuilder
# 12/25/2017 9:15:02 PM

mtllib ./2x2x4_Ramp.mtl
o 2x2x4 Ramp

g 2x2x4 Ramp
v -2 0 -4
v -2 0 0
v -2 2 -4
v -2 0 -4
v 0 0 -4
v -2 2 -4
v 0 2 -4
v 0 0 -4
v 0 0 0
v 0 2 -4
v 0 0 0
v -2 0 0
v 0 2 -4
v -2 2 -4
v 0 0 -4
v -2 0 -4
v 0 0 0
v -2 0 0

vn -1 0 0
vn -1 0 0
vn -1 0 0
vn 0 0 -1
vn 0 0 -1
vn 0 0 -1
vn 0 0 -1
vn 1 0 0
vn 1 0 0
vn 1 0 0
vn 0 0.8944272 0.4472136
vn 0 0.8944272 0.4472136
vn 0 0.8944272 0.4472136
vn 0 0.8944272 0.4472136
vn 0 -1 0
vn 0 -1 0
vn 0 -1 0
vn 0 -1 0

vt -4 0
vt 0 0
vt -4 2
vt 2 0
vt 0 0
vt 2 2
vt 0 2
vt 4 0
vt 0 0
vt 4 2
vt 0 0
vt 2 0
vt 0 -4.472136
vt 2 -4.472136
vt 0 -4
vt -2 -4
vt 0 0
vt -2 0

g 2x2x4 Ramp_0
usemtl GP_Dev_Orange
f 6/6/6 7/7/7 5/5/5 4/4/4
f 17/17/17 18/18/18 16/16/16 15/15/15

g 2x2x4 Ramp_1
usemtl GP_Dev_Gray
f 13/13/13 14/14/14 12/12/12 11/11/11

g 2x2x4 Ramp_2
usemtl GP_Dev_Orange
f 2/2/2 3/3/3 1/1/1
f 10/10/10 9/9/9 8/8/8

